<?xml version="1.0" standalone="no"?>
<!DOCTYPE svg PUBLIC "-//W3C//DTD SVG 20010904//EN"
 "http://www.w3.org/TR/2001/REC-SVG-20010904/DTD/svg10.dtd">
<svg version="1.0" xmlns="http://www.w3.org/2000/svg"
 width="1024.000000pt" height="1024.000000pt" viewBox="0 0 1024.000000 1024.000000"
 preserveAspectRatio="xMidYMid meet">

<g transform="translate(0.000000,1024.000000) scale(0.100000,-0.100000)"
fill="#1B50AA" stroke="none">
<path d="M4820 10230 c-938 -62 -1787 -349 -2555 -863 -455 -305 -896 -723
-1237 -1173 -1168 -1543 -1353 -3659 -473 -5389 252 -494 547 -899 949 -1301
395 -395 786 -681 1277 -936 971 -504 2110 -678 3204 -492 798 137 1532 451
2190 939 370 274 751 653 1037 1031 842 1115 1189 2548 952 3939 -122 717
-387 1378 -797 1990 -305 456 -722 896 -1176 1239 -665 504 -1514 857 -2334
971 -315 44 -759 63 -1037 45z m298 -215 c1 -1 21 -79 44 -174 23 -94 45 -171
48 -171 3 0 30 78 60 172 l56 172 49 -3 c28 -1 52 -4 54 -6 2 -2 -37 -109 -86
-237 l-89 -233 -50 -3 -50 -3 -72 243 c-40 134 -72 247 -72 251 0 6 99 -1 108
-8z m-205 -37 c3 -24 4 -44 3 -45 -2 -2 -58 -7 -126 -13 -67 -5 -124 -11 -127
-14 -2 -2 -1 -25 2 -50 l7 -46 37 5 c20 2 70 7 112 10 73 5 77 5 83 -17 3 -13
6 -33 6 -45 0 -22 7 -21 -200 -36 -19 -1 -34 -5 -32 -9 1 -5 2 -32 2 -60 l0
-53 130 9 c72 4 133 7 135 5 2 -2 5 -22 7 -44 l3 -40 -65 -7 c-35 -4 -118 -9
-185 -10 l-120 -3 -16 235 c-9 129 -14 237 -12 240 4 4 186 20 324 28 24 2 27
-2 32 -40z m950 -8 c4 0 7 -20 7 -45 0 -52 13 -49 -147 -31 l-111 12 -7 -44
c-4 -24 -4 -46 -1 -49 3 -3 54 -11 113 -17 l108 -11 3 -44 3 -44 -78 7 c-43 3
-97 9 -120 12 l-41 6 -7 -56 c-4 -32 -5 -59 -3 -61 2 -3 51 -9 109 -15 154
-16 149 -14 149 -60 0 -21 -3 -41 -7 -43 -9 -6 -355 31 -361 38 -5 5 34 417
43 461 l4 20 168 -17 c93 -10 171 -18 176 -19z m-1520 -34 c53 -22 96 -74 117
-144 46 -147 6 -272 -100 -315 -54 -23 -241 -51 -249 -39 -9 15 -86 461 -80
466 7 7 210 44 247 45 18 1 47 -5 65 -13z m1753 -15 c7 -4 -3 -67 -29 -194
-22 -103 -38 -189 -35 -192 2 -3 54 -15 114 -28 l109 -24 -3 -34 c-2 -19 -7
-39 -10 -45 -8 -13 -338 57 -336 71 1 6 23 113 50 238 l47 228 41 -7 c23 -3
46 -9 52 -13z m605 -154 c54 -27 67 -40 92 -87 26 -49 28 -63 24 -120 -11
-171 -135 -299 -264 -275 -51 9 -122 41 -152 68 -81 74 -80 232 2 353 66 99
181 122 298 61z m-2996 -199 c44 -121 81 -224 83 -227 1 -4 -20 -15 -47 -25
l-50 -18 -128 108 c-70 59 -138 116 -150 127 -17 15 -11 -9 37 -140 l58 -158
-26 -11 c-70 -30 -60 -43 -146 194 -44 119 -81 222 -83 228 -5 13 82 48 101
41 7 -3 74 -57 150 -121 75 -64 136 -114 136 -112 0 2 -22 65 -49 139 -64 174
-63 167 -21 183 19 7 40 13 45 13 6 1 46 -99 90 -221z m3425 24 c129 -64 160
-96 160 -165 0 -50 -45 -134 -82 -153 -51 -26 -97 -18 -236 43 -8 3 -24 -22
-47 -72 -19 -42 -39 -75 -43 -73 -4 2 -24 10 -44 18 -21 8 -38 19 -38 26 0 6
24 62 54 125 29 63 74 158 99 212 25 53 49 97 54 96 4 0 60 -26 123 -57z
m-3950 -236 c99 -94 180 -174 180 -178 0 -5 -20 -18 -45 -30 l-45 -22 -37 36
-36 37 -79 -40 -79 -40 6 -52 7 -52 -47 -23 c-26 -13 -48 -22 -50 -20 -1 2
-14 100 -29 218 -15 118 -30 232 -33 252 -5 35 -4 37 43 62 27 14 52 24 57 23
4 -1 88 -78 187 -171z m4378 15 c2 -5 -21 -88 -51 -185 -30 -97 -53 -176 -52
-176 1 0 60 63 130 139 l129 139 50 -29 c28 -16 57 -33 65 -38 10 -6 -14 -56
-109 -219 l-121 -212 -40 23 c-21 12 -39 26 -39 30 0 4 41 79 90 165 l91 157
-48 -50 c-27 -27 -85 -90 -130 -139 -80 -87 -82 -89 -110 -77 -69 29 -68 20
-8 212 30 95 53 175 51 176 -1 1 -39 -62 -84 -140 -45 -78 -86 -148 -91 -156
-7 -11 -16 -9 -50 10 -22 13 -40 27 -38 30 1 3 56 98 121 212 l120 206 60 -34
c33 -19 62 -38 64 -44z m-1973 -75 c201 -25 354 -53 550 -101 1500 -369 2690
-1559 3060 -3060 90 -363 120 -619 120 -1015 0 -396 -30 -652 -120 -1015 -405
-1645 -1785 -2896 -3461 -3140 -538 -79 -1097 -52 -1616 76 -645 159 -1246
470 -1745 903 -417 361 -764 807 -1007 1293 -227 454 -355 886 -423 1423 -24
191 -24 729 0 920 68 536 196 969 422 1422 199 399 439 732 763 1062 341 346
690 600 1117 813 490 245 991 384 1555 433 154 13 631 4 785 -14z m-2900 -22
c18 -8 41 -24 50 -34 16 -18 15 -20 -25 -46 -40 -27 -41 -27 -77 -10 -22 10
-46 15 -64 11 -36 -8 -76 -46 -85 -80 -16 -64 56 -194 124 -222 77 -32 159 28
148 109 -6 34 -4 37 37 61 46 28 50 26 61 -35 15 -85 -32 -172 -117 -215 -98
-49 -197 -28 -271 58 -72 85 -103 193 -77 272 36 108 195 179 296 131z m5432
-267 l133 -99 -21 -29 c-11 -16 -24 -31 -29 -34 -5 -3 -54 28 -109 69 l-100
76 -30 -39 -31 -39 95 -72 94 -72 -25 -34 c-30 -39 -22 -41 -132 44 -46 35
-84 63 -86 61 -1 -2 -17 -23 -34 -45 -18 -23 -32 -45 -32 -48 0 -3 47 -41 104
-84 l105 -79 -26 -36 -26 -37 -31 23 c-17 13 -84 63 -149 112 -78 58 -114 91
-109 99 5 6 71 93 146 194 90 120 141 180 149 175 7 -4 72 -52 144 -106z
m-5738 -147 l140 -185 -27 -23 c-56 -48 -48 -55 -200 149 -78 104 -142 193
-142 197 0 14 74 62 81 54 4 -4 71 -90 148 -192z m-231 -24 c33 -32 37 -42 37
-86 0 -49 1 -50 30 -50 24 0 43 -12 85 -55 30 -30 60 -55 67 -55 28 0 20 -20
-22 -55 l-45 -36 -58 55 c-33 32 -68 56 -80 56 -18 0 -112 -70 -120 -90 -1 -4
19 -31 45 -61 26 -30 53 -61 60 -70 12 -15 9 -21 -26 -48 l-40 -32 -153 177
c-84 97 -153 182 -153 188 0 14 159 156 209 188 50 31 118 20 164 -26z m6254
-63 l26 -28 -43 -180 c-25 -99 -44 -182 -45 -185 0 -3 51 49 114 115 l114 120
31 -29 c17 -17 31 -33 31 -38 0 -10 -312 -342 -325 -346 -6 -1 -25 13 -43 31
l-33 34 44 188 44 189 -116 -122 -116 -122 -33 30 c-21 20 -30 35 -25 44 4 7
78 87 163 179 166 178 161 175 212 120z m-6680 -209 l27 -27 -79 -85 c-44 -47
-80 -88 -80 -92 0 -3 16 -22 36 -41 l36 -34 71 77 72 77 35 -29 35 -29 -75
-76 -75 -76 72 -70 73 -71 -31 -39 -31 -39 -66 59 c-37 33 -118 108 -180 168
l-113 108 113 122 c62 68 117 123 122 123 6 0 22 -12 38 -26z m7122 -239 l116
-129 -30 -31 -31 -30 -51 53 c-50 53 -51 53 -72 34 -136 -124 -271 -242 -275
-242 -3 0 -20 17 -37 38 l-32 38 144 128 c79 71 144 134 144 140 0 7 -20 32
-45 56 l-45 44 32 33 c38 39 15 55 182 -132z m-7330 -276 c133 -39 243 -73
244 -74 2 -2 -11 -23 -30 -48 -33 -43 -34 -44 -68 -31 -58 21 -66 17 -118 -54
l-49 -68 29 -42 30 -43 -26 -40 c-15 -21 -30 -39 -35 -39 -7 0 -252 350 -285
408 -6 11 49 102 62 102 3 0 113 -32 246 -71z m7625 -134 c101 -55 150 -189
103 -281 -34 -67 -45 -70 -76 -23 -27 39 -27 42 -12 79 36 90 -35 167 -131
141 -118 -31 -192 -126 -160 -203 20 -48 44 -63 99 -64 45 0 51 -3 75 -38 29
-44 24 -51 -43 -62 -168 -25 -298 177 -208 323 79 128 243 187 353 128z
m-7940 -357 c102 -61 190 -114 195 -119 5 -4 -3 -27 -17 -52 l-26 -44 -193 4
c-222 6 -219 15 -31 -97 l123 -72 -22 -39 c-12 -22 -26 -39 -31 -39 -11 0
-376 217 -396 236 -12 11 -10 19 13 58 l26 45 185 -6 c102 -3 185 -4 185 -1 0
3 -44 32 -97 63 -54 32 -115 69 -136 82 l-38 24 23 40 c14 26 27 38 36 34 8
-3 98 -55 201 -117z m8194 -82 c108 -46 170 -211 118 -314 -38 -74 -152 -149
-245 -159 -130 -15 -250 99 -250 237 0 98 51 166 169 222 68 32 153 38 208 14z
m-8528 -325 c17 -9 38 -34 49 -54 14 -29 22 -36 35 -31 26 12 75 6 122 -16 24
-11 56 -20 72 -20 15 0 27 -2 27 -5 0 -3 -11 -28 -25 -55 -28 -54 -23 -54
-128 -14 -35 14 -52 16 -65 8 -20 -13 -58 -77 -67 -115 -6 -24 -2 -28 70 -59
41 -18 78 -37 81 -42 7 -11 -25 -88 -35 -88 -7 0 -433 189 -438 194 -8 8 111
254 134 278 46 48 104 55 168 19z m8803 -174 c35 -91 43 -80 -132 -193 -87
-57 -155 -104 -150 -104 5 0 90 11 189 24 99 13 182 23 183 21 2 -2 15 -33 28
-70 l24 -65 -23 -10 c-12 -6 -114 -43 -227 -84 l-205 -74 -17 36 c-9 20 -17
42 -17 47 -1 6 73 37 164 69 91 32 164 61 161 63 -2 2 -73 -5 -156 -16 -214
-29 -205 -30 -220 24 -7 25 -11 47 -9 49 2 2 69 45 149 96 80 51 149 97 155
101 5 5 -29 -5 -75 -22 -47 -17 -126 -46 -177 -64 l-92 -34 -15 46 c-9 26 -15
47 -13 48 3 4 441 163 449 164 4 1 15 -23 26 -52z m-9078 -282 c0 -5 -16 -59
-35 -120 -19 -60 -35 -113 -35 -116 0 -10 84 -29 92 -21 3 4 21 53 39 110 24
78 36 102 46 97 8 -3 26 -8 39 -11 31 -8 30 -14 -7 -130 -17 -53 -27 -100 -22
-104 4 -4 29 -14 55 -23 l47 -16 40 122 c24 75 45 123 54 125 8 2 28 -3 44
-10 l30 -13 -54 -170 c-30 -93 -57 -172 -59 -174 -5 -5 -446 138 -456 148 -5
4 17 81 47 172 l56 166 39 -11 c22 -5 40 -15 40 -21z m9270 -282 c5 -21 13
-55 16 -75 l6 -37 -167 -83 -168 -83 190 -3 190 -2 15 -71 c11 -50 12 -72 4
-74 -15 -5 -453 -105 -459 -105 -5 0 -30 91 -25 94 2 1 82 21 178 43 l175 41
-187 1 -187 1 -10 38 c-6 20 -11 43 -11 50 0 6 72 46 160 89 88 42 159 78 157
80 -3 2 -79 -14 -171 -35 -92 -22 -168 -36 -170 -33 -9 15 -17 91 -9 92 4 0
107 24 228 54 121 29 223 53 227 54 4 0 12 -16 18 -36z m-9236 -217 c114 -25
210 -46 211 -48 8 -8 -18 -98 -28 -98 -7 0 -50 9 -97 20 -47 11 -90 20 -95 20
-11 0 -51 -168 -42 -176 2 -2 46 -13 98 -25 52 -11 97 -23 100 -27 10 -12 -11
-92 -24 -92 -14 0 -460 92 -466 96 -2 2 2 25 9 52 l11 49 87 -18 c48 -9 89
-16 91 -13 12 12 39 169 30 175 -6 3 -41 11 -77 18 -94 17 -96 18 -81 75 11
43 14 47 38 42 14 -3 120 -26 235 -50z m9362 -402 c4 -32 3 -49 -5 -54 -7 -4
-72 -12 -144 -19 -169 -16 -208 -25 -231 -53 -22 -27 -17 -89 10 -119 21 -24
84 -25 264 -5 69 8 126 14 127 12 1 -1 5 -25 9 -54 5 -41 4 -52 -7 -52 -8 0
-72 -7 -144 -15 -168 -19 -229 -19 -271 1 -78 37 -118 183 -76 277 24 54 65
83 132 93 73 11 252 31 292 33 36 1 37 0 44 -45z m-9628 -29 c1 -1 -2 -33 -7
-71 -6 -37 -9 -69 -8 -70 1 -1 90 -13 197 -26 l195 -23 -4 -50 c-1 -28 -4 -51
-6 -53 -2 -2 -90 7 -196 21 l-194 23 -7 -25 c-4 -14 -10 -47 -13 -72 l-6 -47
-42 5 c-23 3 -43 6 -44 7 -1 1 9 89 23 196 13 107 24 196 24 197 0 2 84 -9 88
-12z m9667 -505 l0 -55 -157 -90 -157 -90 160 -3 159 -2 0 -50 0 -50 -245 0
-245 0 0 53 1 52 167 95 167 95 -167 3 -168 2 0 50 0 50 243 -2 242 -3 0 -55z
m-9448 14 c48 -6 95 -40 120 -88 25 -47 22 -159 -6 -214 -37 -72 -70 -82 -293
-82 l-188 0 0 56 0 55 185 -3 c179 -3 185 -2 206 19 28 28 31 105 5 131 -19
19 -118 30 -283 31 l-103 1 0 53 0 54 158 -4 c86 -2 176 -6 199 -9z m9231
-453 c111 -10 204 -20 206 -22 2 -2 2 -25 -1 -51 -4 -37 -10 -48 -23 -48 -31
0 -464 40 -467 44 -2 1 0 24 3 49 8 56 -12 54 282 28z m-9199 -47 c140 -56
176 -264 65 -371 -113 -109 -338 -96 -415 24 -30 49 -46 130 -35 186 9 46 51
108 92 136 73 50 203 61 293 25z m9387 -139 c7 -2 2 -65 -16 -194 -14 -105
-28 -192 -31 -195 -8 -8 -84 10 -83 20 1 5 5 36 9 70 l7 61 -29 6 c-15 3 -104
15 -196 28 l-168 22 6 51 c4 28 8 52 9 53 1 1 90 -11 198 -26 l197 -27 6 56
c10 88 12 90 48 84 18 -3 37 -7 43 -9z m-9271 -384 c48 -26 89 -118 89 -201 1
-56 -3 -73 -26 -107 -24 -37 -81 -73 -94 -60 -3 3 -10 25 -15 49 -8 31 -7 44
2 47 6 2 20 12 31 23 17 17 19 29 15 71 -10 82 -51 122 -95 91 -16 -11 -20
-31 -25 -120 -8 -116 -18 -147 -60 -178 -39 -29 -124 -29 -164 0 -45 32 -78
109 -77 179 0 71 21 118 67 145 46 28 55 25 64 -22 8 -40 7 -45 -20 -71 -26
-24 -29 -33 -24 -68 8 -61 32 -91 70 -87 39 4 45 22 46 136 1 121 31 175 103
192 39 9 72 3 113 -19z m9208 -120 l-15 -59 -109 -23 c-60 -13 -109 -26 -109
-29 1 -3 39 -34 86 -69 l86 -64 -7 -46 c-4 -25 -10 -51 -14 -58 -4 -8 -52 28
-136 101 l-130 114 -83 17 c-45 10 -84 21 -86 24 -3 4 0 28 6 54 8 37 13 47
26 43 10 -2 51 -12 92 -21 l75 -17 155 45 c85 25 160 46 166 46 8 1 7 -16 -3
-58z m-8985 -607 c134 -66 158 -240 48 -342 -84 -77 -194 -81 -280 -11 -101
84 -101 244 0 327 70 58 150 67 232 26z m8581 -13 c125 -64 158 -217 70 -324
-103 -125 -301 -95 -363 55 -42 100 5 219 109 272 43 22 137 21 184 -3z m-489
-622 c0 -5 -29 -55 -64 -112 l-64 -102 41 -27 42 -28 33 53 c18 28 46 74 63
100 l30 48 32 -20 c17 -11 33 -24 34 -28 1 -4 -24 -51 -57 -103 l-59 -95 51
-32 51 -33 71 114 71 114 28 -16 c16 -9 32 -22 37 -27 6 -7 -26 -66 -81 -155
-50 -80 -94 -149 -99 -154 -5 -5 -100 49 -214 120 -194 121 -205 130 -192 149
7 11 50 79 95 152 l82 132 35 -21 c19 -11 34 -24 34 -29z m-7610 -144 l99
-159 -34 -23 c-19 -13 -36 -23 -39 -23 -3 0 -21 27 -42 60 -22 35 -41 57 -48
53 -6 -4 -82 -51 -170 -105 -87 -55 -159 -98 -160 -96 -1 2 -14 22 -28 44
l-27 42 102 63 c56 34 132 82 170 106 l67 43 -35 55 c-19 31 -35 59 -35 64 0
14 64 51 73 42 4 -4 52 -79 107 -166z m7451 -244 c30 -30 39 -46 39 -73 0 -33
1 -33 38 -30 30 3 48 -4 97 -37 33 -23 68 -41 78 -41 23 0 22 -6 -15 -54 -17
-22 -33 -43 -35 -45 -1 -2 -31 15 -66 38 -35 22 -73 41 -84 41 -13 0 -37 -18
-58 -42 -64 -74 -64 -71 20 -134 l75 -56 -31 -39 c-18 -23 -36 -36 -42 -32
-21 12 -367 275 -371 282 -6 9 139 201 176 234 27 22 42 27 86 27 50 0 58 -3
93 -39z m-7330 9 c84 -23 169 -139 169 -229 -1 -64 -28 -118 -89 -174 -66 -62
-130 -90 -201 -90 -66 0 -104 18 -153 72 -54 60 -71 99 -71 161 1 69 27 122
87 177 87 81 170 107 258 83z m7085 -407 c112 -104 144 -151 144 -215 0 -59
-46 -130 -115 -176 -44 -30 -56 -33 -98 -29 -59 5 -83 22 -232 161 l-116 109
37 38 37 38 116 -108 c173 -160 180 -164 237 -107 24 24 34 43 34 65 0 34 -15
51 -169 194 -102 94 -99 86 -48 144 l20 22 29 -24 c16 -14 72 -64 124 -112z
m-6856 -89 c-50 -76 -94 -143 -97 -147 -2 -4 60 35 140 87 l145 94 36 -37 c20
-20 36 -40 36 -44 0 -4 -40 -65 -89 -135 -48 -71 -91 -134 -94 -139 -4 -6 61
30 144 80 l152 92 33 -39 c19 -22 32 -41 30 -43 -6 -7 -430 -233 -436 -233 -3
0 -21 15 -39 34 l-33 34 101 147 c55 80 101 148 101 150 0 3 -51 -29 -112 -69
-62 -40 -132 -84 -155 -97 l-42 -24 -30 29 c-17 17 -31 33 -31 37 0 5 38 72
83 151 46 79 103 176 127 217 l42 73 40 -39 40 -40 -92 -139z m6462 -101 l28
-27 -52 -53 -52 -53 21 -22 c11 -13 71 -79 132 -148 l112 -124 -38 -33 c-21
-18 -41 -31 -44 -30 -3 1 -63 66 -134 145 -141 157 -126 150 -197 83 l-38 -35
-30 29 c-17 16 -29 33 -28 37 4 10 280 258 287 258 3 0 18 -12 33 -27z m-5886
-221 l42 -37 -64 -170 c-36 -93 -76 -200 -90 -237 -14 -38 -29 -68 -32 -68 -4
1 -24 15 -45 33 l-38 33 21 48 c11 27 19 50 18 50 -2 1 -32 26 -67 56 l-63 54
-48 -27 -47 -27 -39 34 c-21 19 -36 37 -33 40 9 9 432 256 439 256 3 -1 24
-18 46 -38z m5657 -157 c104 -143 127 -186 127 -236 0 -70 -76 -153 -170 -185
-53 -18 -98 -10 -142 26 -30 25 -213 265 -224 295 -6 15 74 71 85 59 4 -5 48
-64 96 -132 101 -141 127 -166 165 -157 68 17 99 64 76 118 -7 18 -54 88 -104
157 -51 69 -92 127 -92 130 1 6 72 59 81 60 3 0 49 -61 102 -135z m-5242 -163
c52 -58 34 -161 -34 -202 -18 -11 -41 -20 -52 -20 -17 0 -20 -7 -20 -39 0 -28
-11 -54 -38 -95 -20 -30 -37 -65 -37 -76 0 -11 -3 -20 -6 -20 -5 0 -64 41 -88
61 -5 5 10 39 33 78 28 46 41 77 37 89 -4 11 -33 38 -65 60 l-58 41 -52 -74
c-29 -41 -55 -75 -59 -75 -4 0 -24 12 -45 26 -26 17 -35 29 -29 37 5 7 58 82
117 167 59 85 119 170 132 188 l24 32 106 -72 c58 -40 118 -88 134 -106z
m4832 27 c9 -17 17 -34 17 -39 0 -4 -45 -36 -100 -70 l-99 -61 26 -42 c14 -23
27 -44 29 -46 2 -2 44 22 93 52 l90 56 20 -33 c12 -18 21 -36 21 -39 0 -3 -34
-27 -77 -54 -42 -26 -81 -51 -87 -55 -9 -6 15 -50 81 -155 13 -20 12 -23 -24
-47 -21 -14 -41 -26 -45 -26 -3 0 -63 91 -133 202 -102 163 -124 203 -113 214
15 13 270 174 278 174 3 0 13 -14 23 -31z m-4604 -147 c128 -71 162 -109 169
-184 6 -79 -27 -158 -97 -229 -68 -69 -119 -89 -184 -71 -47 12 -236 113 -237
125 0 16 225 416 235 417 6 0 57 -26 114 -58z m4224 -294 c105 -239 104 -228
35 -249 -36 -12 -36 -12 -179 92 -78 57 -148 107 -155 112 -7 4 17 -58 53
-139 35 -80 62 -151 60 -159 -5 -12 -75 -41 -81 -33 -3 3 -130 288 -177 396
l-19 43 47 20 c26 11 52 18 60 15 7 -3 74 -51 149 -106 75 -56 138 -99 140
-97 2 2 -23 64 -56 137 -33 73 -60 139 -60 145 0 10 60 43 80 44 3 0 49 -99
103 -221z m-3813 101 c89 -40 139 -113 126 -185 -8 -39 -10 -40 -60 -19 -24
10 -36 22 -36 35 0 55 -51 100 -114 100 -39 0 -62 -26 -51 -59 3 -11 40 -45
81 -76 41 -31 84 -71 95 -88 55 -91 -21 -207 -136 -207 -49 0 -150 46 -187 86
-44 48 -60 112 -38 154 10 19 11 19 54 -1 35 -18 42 -26 38 -44 -6 -33 14 -62
58 -85 54 -28 95 -26 115 4 22 34 11 51 -75 117 -89 67 -114 106 -107 160 15
110 123 160 237 108z m3269 -119 c81 -41 151 -165 151 -267 0 -129 -112 -234
-249 -233 -118 1 -219 123 -229 275 -4 62 -1 78 21 122 52 102 206 154 306
103z m-2644 -134 c10 -78 38 -467 33 -471 -2 -2 -27 3 -55 11 l-52 15 -3 52
-3 52 -83 22 -82 21 -30 -43 -30 -43 -42 10 c-24 6 -47 14 -51 18 -4 4 57 102
137 217 l145 210 55 -15 c54 -15 55 -16 61 -56z m2278 -183 c26 -126 48 -233
47 -239 0 -13 -32 -24 -67 -24 -26 0 -23 -9 -68 205 l-32 150 -4 -187 c-2
-102 -7 -189 -10 -192 -3 -3 -26 -9 -50 -12 l-45 -6 -74 162 c-41 89 -76 158
-77 153 -2 -4 12 -80 31 -168 19 -88 32 -163 28 -167 -4 -4 -25 -10 -48 -13
l-41 -7 -32 153 c-18 85 -41 191 -51 237 -10 45 -15 84 -11 86 15 9 123 27
135 23 7 -3 46 -77 87 -165 l74 -160 6 91 c4 51 7 133 8 184 l1 92 38 10 c56
14 76 19 92 20 12 1 26 -48 63 -226z m-1650 103 c51 -29 82 -73 92 -128 8 -42
5 -44 -67 -32 -28 5 -38 12 -38 25 0 35 -43 71 -93 76 -43 5 -49 3 -81 -29
-57 -57 -75 -181 -36 -245 39 -65 139 -66 177 -2 16 26 20 28 62 22 25 -3 48
-8 51 -10 12 -10 -48 -98 -82 -121 -68 -44 -174 -40 -249 11 -133 90 -108 366
41 445 61 32 157 27 223 -12z m1097 7 c0 -10 9 -117 20 -238 11 -121 20 -223
20 -227 0 -5 -22 -8 -50 -8 -33 0 -50 4 -50 13 0 25 -30 341 -33 343 -2 2 -13
-80 -26 -181 -26 -202 -23 -195 -97 -195 l-31 0 -54 171 c-30 95 -55 163 -57
153 -1 -10 4 -89 12 -174 7 -85 13 -156 12 -156 0 -1 -22 -4 -47 -8 l-47 -7
-5 43 c-11 77 -40 438 -36 442 2 3 36 7 75 11 l72 7 59 -183 59 -184 23 170
c31 231 24 213 79 218 102 8 102 8 102 -10z m-631 -27 c77 -40 121 -124 121
-231 0 -133 -69 -233 -174 -255 -181 -37 -313 89 -292 281 11 106 53 173 131
211 50 24 162 20 214 -6z"/>
<path d="M4192 9848 c-46 -8 -53 -13 -49 -29 3 -11 16 -80 28 -154 l23 -135
40 6 c58 9 109 35 123 64 27 54 11 179 -30 225 -27 30 -64 37 -135 23z"/>
<path d="M6529 9687 c-46 -30 -81 -103 -83 -171 -2 -90 40 -136 123 -136 78 0
142 88 143 196 1 61 -13 89 -55 114 -42 26 -86 25 -128 -3z"/>
<path d="M7030 9470 c-16 -33 -30 -61 -30 -63 0 -3 27 -16 59 -31 69 -31 101
-24 122 26 17 42 -1 69 -67 101 l-54 27 -30 -60z"/>
<path d="M3001 9370 c0 -14 6 -55 12 -92 l12 -66 53 27 52 26 -65 65 c-58 57
-65 62 -64 40z"/>
<path d="M3300 7716 c-183 -33 -362 -103 -501 -197 -82 -54 -207 -175 -269
-260 -63 -84 -134 -233 -161 -334 -12 -46 -23 -127 -26 -190 -9 -192 50 -400
163 -581 143 -227 316 -364 799 -630 387 -212 505 -293 636 -431 125 -132 171
-249 171 -431 0 -134 -12 -191 -59 -292 -50 -106 -167 -222 -280 -276 l-81
-39 -85 -220 c-47 -121 -88 -228 -92 -237 -9 -23 12 -23 131 -3 258 44 469
149 647 324 177 172 279 381 302 621 14 136 -27 336 -104 510 -60 135 -115
215 -215 316 -141 141 -264 224 -677 454 -343 191 -462 271 -581 391 -80 80
-103 111 -137 180 -85 177 -80 387 12 564 74 140 249 271 423 315 94 24 260
27 352 5 138 -33 292 -127 373 -228 75 -94 129 -226 129 -314 l0 -43 246 0
246 0 -7 78 c-43 457 -397 827 -900 938 -97 21 -359 27 -455 10z"/>
<path d="M6750 7709 c-376 -81 -668 -355 -769 -719 -39 -140 -42 -255 -38
-1430 4 -1237 1 -1170 67 -1351 37 -103 96 -205 172 -297 65 -79 195 -189 208
-176 34 36 34 64 40 1594 l5 1505 22 58 c56 146 152 270 255 331 157 92 352
88 496 -10 145 -97 237 -245 263 -420 l11 -74 241 0 240 0 -6 88 c-25 352
-243 665 -572 823 -137 66 -238 89 -405 95 -110 3 -152 0 -230 -17z"/>
<path d="M4800 6568 l0 -463 242 -635 243 -635 3 883 2 882 290 0 290 0 0 118
c0 77 7 149 20 212 11 52 20 96 20 98 0 1 -250 2 -555 2 l-555 0 0 -462z"/>
<path d="M6516 6809 c-3 -17 -6 -682 -6 -1478 0 -1237 -2 -1456 -15 -1516 -42
-198 -187 -364 -374 -428 -34 -12 -99 -22 -163 -26 l-107 -6 83 -215 82 -215
39 3 c108 8 287 68 394 131 224 133 376 331 458 596 l28 90 0 1225 0 1225 -23
85 c-29 105 -97 252 -156 334 -43 61 -207 226 -225 226 -4 0 -11 -14 -15 -31z"/>
<path d="M4061 6508 c-45 -118 -228 -597 -246 -645 l-23 -61 81 -48 c67 -38
232 -145 293 -189 7 -5 15 -7 17 -5 2 3 30 75 62 160 32 85 61 158 64 162 3 4
99 -237 213 -535 l207 -542 -40 -3 c-32 -3 -39 -7 -35 -20 18 -68 24 -234 10
-307 l-6 -35 105 0 105 0 32 -82 c17 -46 183 -479 368 -963 l337 -880 243 -3
c154 -1 243 1 240 7 -1 6 -347 910 -768 2010 l-765 2001 -243 0 c-242 0 -243
0 -251 -22z"/>
<path d="M3586 5262 c-3 -5 -885 -2307 -1034 -2699 l-20 -53 242 0 243 0 369
965 369 965 123 0 122 0 11 28 c19 49 33 203 23 267 l-9 60 -66 3 -67 3 29 72
c16 40 28 77 29 84 1 32 -147 173 -277 263 -75 53 -79 55 -87 42z"/>
<path d="M2283 4533 c20 -246 155 -501 356 -669 72 -60 234 -164 255 -164 10
0 172 409 164 414 -1 1 -29 22 -62 46 -118 89 -196 216 -224 364 l-16 86 -240
0 -239 0 6 -77z"/>
<path d="M7467 4468 c-25 -133 -73 -224 -167 -319 -78 -79 -127 -111 -220
-140 l-55 -17 -7 -116 c-6 -107 -37 -266 -59 -308 -12 -22 -6 -22 111 -8 164
20 308 74 443 163 93 62 228 197 284 284 91 143 149 312 160 469 l6 84 -239 0
-240 0 -17 -92z"/>
<path d="M4800 3640 l0 -720 284 0 284 0 -48 126 c-27 69 -151 393 -276 720
-125 327 -231 594 -236 594 -4 0 -8 -324 -8 -720z"/>
<path d="M1973 8742 c-77 -61 -77 -61 -36 -110 19 -23 40 -42 46 -42 7 0 36
23 65 50 58 56 65 84 29 118 -32 30 -48 28 -104 -16z"/>
<path d="M1336 7989 c6 -8 32 -42 57 -76 l45 -63 31 39 c17 21 31 43 31 48 0
5 -33 20 -72 32 -40 13 -80 26 -88 29 -12 5 -13 3 -4 -9z"/>
<path d="M9225 7366 c-67 -31 -105 -74 -112 -123 -15 -110 95 -170 210 -114
102 49 141 133 95 201 -44 65 -107 77 -193 36z"/>
<path d="M761 7063 c-7 -3 -28 -38 -47 -77 l-33 -71 57 -27 57 -27 23 50 c42
89 44 108 17 135 -23 23 -45 28 -74 17z"/>
<path d="M395 4671 c-75 -34 -101 -93 -71 -164 18 -43 77 -76 137 -77 57 0
136 28 158 56 48 62 29 152 -39 186 -46 23 -133 23 -185 -1z"/>
<path d="M8734 2418 c-11 -13 -35 -42 -53 -65 l-32 -42 47 -36 c26 -19 51 -34
55 -33 21 8 89 114 89 139 0 54 -70 78 -106 37z"/>
<path d="M1465 2413 c-35 -8 -111 -64 -136 -101 -43 -64 -25 -152 39 -181 57
-27 139 -2 202 60 76 77 64 177 -26 215 -34 14 -44 15 -79 7z"/>
<path d="M2195 1555 c-39 -25 -70 -48 -70 -53 0 -10 74 -77 79 -71 6 9 66 163
63 165 -1 1 -34 -17 -72 -41z"/>
<path d="M2526 1368 l-36 -52 67 -43 c36 -24 74 -43 84 -43 21 0 59 45 59 71
0 17 -53 66 -111 103 -26 16 -26 16 -63 -36z"/>
<path d="M2851 1054 c-40 -74 -72 -137 -70 -139 17 -16 107 -55 128 -55 57 0
120 67 148 158 15 48 16 57 3 80 -12 21 -111 91 -130 91 -3 1 -38 -60 -79
-135z"/>
<path d="M6520 853 c-73 -38 -87 -130 -36 -231 31 -61 62 -82 122 -82 39 0 51
5 80 34 31 31 34 39 34 93 0 67 -36 154 -75 179 -37 24 -86 27 -125 7z"/>
<path d="M3887 660 c-26 -38 -47 -72 -47 -74 0 -2 13 -6 29 -9 16 -3 40 -9 55
-13 l26 -6 0 73 c0 108 -9 112 -63 29z"/>
<path d="M4952 620 c-47 -29 -65 -78 -60 -167 4 -86 25 -121 85 -142 57 -20
109 0 141 54 20 35 22 51 20 123 -3 82 -4 84 -40 118 -45 41 -94 45 -146 14z"/>
</g>
</svg>
